# xmcd
#
# Track frame offsets:
#	150
#	32425
#	51975
#	72450
#	85050
#	232575
#	266025
#	280937
#
# Disc length: 4230 seconds
#
# Revision: 1
# Processed by: cddbd v1.5.2PL0 Copyright (c) Steve Scherf et al.
# Submitted via: EasyCDDAExtractor 12.0.4.1
#
DISCID=66108408
DTITLE=Pays Lobi - Pays Lobi - Burkina Faso. Xylophone de funerailles
DYEAR=1999
DGENRE=African
TTITLE0=Palé Tiointé, Kambiré Tiaporté, Da Gboro Alé
TTITLE1=Palé Tioionté
TTITLE2=Palé Tioionté
TTITLE3=Anonyme
TTITLE4=Hien Bihoulèté, Kambiré Tiaporté, Da Gboro Alé
TTITLE5=Hien Bihoulèté
TTITLE6=Palé Tioionté
TTITLE7=Palé Tioionté, Kambiré Tiaporté, Da Gboro Alé
EXTD=YEAR: 1999
EXTT0=
EXTT1=
EXTT2=
EXTT3=
EXTT4=
EXTT5=
EXTT6=
EXTT7=
PLAYORDER=
